/* XPM */
static const char * avebaixo_xpm[] = {
"95 68 2 1",
" 	c None",
".	c #000000",
"                                                                                               ",
"                                                                                               ",
"                                                                                               ",
"                                                                                               ",
"                     ........                                                                  ",
"                     ........                                                                  ",
"                     ........                                                                  ",
"                     ........                                                                  ",
"                 ............                                                                  ",
"                 ............                                                                  ",
"                 ............                                                                  ",
"                 ............                                                                  ",
"             ....................                                                              ",
"             ....................                                                              ",
"             ....................                                                              ",
"             ....................                                                              ",
"         ........................                                                              ",
"         ........................                                                              ",
"         ........................                                                              ",
"         ........................                                                              ",
"     ........................................................                                  ",
"     ........................................................                                  ",
"     ........................................................                                  ",
"     ........................................................                                  ",
"                             ....................................                              ",
"                             ....................................                              ",
"                             ....................................                              ",
"                             ....................................                              ",
"                                 ........................................................      ",
"                                 ........................................................      ",
"                                 ........................................................      ",
"                                 ........................................................      ",
"                                     ........................................                  ",
"                                     ........................................                  ",
"                                     ........................................                  ",
"                                     ........................................                  ",
"                                     ................................................          ",
"                                     ................................................          ",
"                                     ................................................          ",
"                                     ................................................          ",
"                                     ....................................                      ",
"                                     ....................................                      ",
"                                     ....................................                      ",
"                                     ....................................                      ",
"                                     ................                                          ",
"                                     ................                                          ",
"                                     ................                                          ",
"                                     ................                                          ",
"                                     ............                                              ",
"                                     ............                                              ",
"                                     ............                                              ",
"                                     ............                                              ",
"                                     ........                                                  ",
"                                     ........                                                  ",
"                                     ........                                                  ",
"                                     ........                                                  ",
"                                     ........                                                  ",
"                                     ........                                                  ",
"                                     ........                                                  ",
"                                     ........                                                  ",
"                                     ....                                                      ",
"                                     ....                                                      ",
"                                     ....                                                      ",
"                                     ....                                                      ",
"                                                                                               ",
"                                                                                               ",
"                                                                                               ",
"                                                                                               "};
