/* XPM */
static const char * avecima_xpm[] = {
"84 52 2 1",
" 	c None",
".	c #000000",
"                            ....                                                    ",
"                            ....                                                    ",
"                            ....                                                    ",
"                            ....                                                    ",
"                            ........                                                ",
"                            ........                                                ",
"                            ........                                                ",
"                            ........                                                ",
"                            ............                                            ",
"                            ............                                            ",
"                            ............                                            ",
"                            ............                                            ",
"                ........        ............                                        ",
"                ........        ............                                        ",
"                ........        ............                                        ",
"                ........        ............                                        ",
"            ............        ................                                    ",
"            ............        ................                                    ",
"            ............        ................                                    ",
"            ............        ................                                    ",
"        ....................    ....................                                ",
"        ....................    ....................                                ",
"        ....................    ....................                                ",
"        ....................    ....................                                ",
"    ........................    ........................                            ",
"    ........................    ........................                            ",
"    ........................    ........................                            ",
"    ........................    ........................                            ",
"........................................................                            ",
"........................................................                            ",
"........................................................                            ",
"........................................................                            ",
"                        ....................................                        ",
"                        ....................................                        ",
"                        ....................................                        ",
"                        ....................................                        ",
"                            ........................................................",
"                            ........................................................",
"                            ........................................................",
"                            ........................................................",
"                                ........................................            ",
"                                ........................................            ",
"                                ........................................            ",
"                                ........................................            ",
"                                    ............................................    ",
"                                    ............................................    ",
"                                    ............................................    ",
"                                    ............................................    ",
"                                        ............................                ",
"                                        ............................                ",
"                                        ............................                ",
"                                        ............................                "};
