/* XPM */
static const char * cactus_xpm[] = {
"34 70 2 1",
" 	c None",
".	c #000000",
"                                  ",
"                                  ",
"              ......              ",
"              ......              ",
"          ..............          ",
"          ..............          ",
"          ..............          ",
"          ..............          ",
"          ..............          ",
"          ..............          ",
"          ..............    ....  ",
"          ..............    ....  ",
"          ..............  ........",
"          ..............  ........",
"          ..............  ........",
"          ..............  ........",
"          ..............  ........",
"          ..............  ........",
"  ....    ..............  ........",
"  ....    ..............  ........",
"........  ..............  ........",
"........  ..............  ........",
"........  ..............  ........",
"........  ..............  ........",
"........  ..............  ........",
"........  ..............  ........",
"........  ..............  ........",
"........  ..............  ........",
"........  ..............  ........",
"........  ..............  ........",
"........  ..............  ........",
"........  ..............  ........",
"........  ..............  ........",
"........  ..............  ........",
"........  ........................",
"........  ........................",
"........  ......................  ",
"........  ......................  ",
"........  ....................    ",
"........  ....................    ",
"........  ..............          ",
"........  ..............          ",
"........................          ",
"........................          ",
"........................          ",
"........................          ",
"  ......................          ",
"  ......................          ",
"    ....................          ",
"    ....................          ",
"          ..............          ",
"          ..............          ",
"          ..............          ",
"          ..............          ",
"          ..............          ",
"          ..............          ",
"          ..............          ",
"          ..............          ",
"          ..............          ",
"          ..............          ",
"          ..............          ",
"          ..............          ",
"          ..............          ",
"          ..............          ",
"          ..............          ",
"          ..............          ",
"          ..............          ",
"          ..............          ",
"          ..............          ",
"          ..............          "};
