/* XPM */
static const char * dino_rightleg_xpm[] = {
"80 86 2 1",
" 	c None",
".	c #000000",
"                                            ................................    ",
"                                            ................................    ",
"                                            ................................    ",
"                                            ................................    ",
"                                        ........................................",
"                                        ........................................",
"                                        ........    ............................",
"                                        ........    ............................",
"                                        ........    ............................",
"                                        ........    ............................",
"                                        ........................................",
"                                        ........................................",
"                                        ........................................",
"                                        ........................................",
"                                        ........................................",
"                                        ........................................",
"                                        ........................................",
"                                        ........................................",
"                                        ........................................",
"                                        ........................................",
"                                        ........................................",
"                                        ........................................",
"                                        ....................                    ",
"                                        ....................                    ",
"                                        ....................                    ",
"                                        ....................                    ",
"                                        ................................        ",
"                                        ................................        ",
"                                        ................................        ",
"                                        ................................        ",
"....                                ....................                        ",
"....                                ....................                        ",
"....                                ....................                        ",
"....                                ....................                        ",
"....                          ..........................                        ",
"....                          ..........................                        ",
"....                          ..........................                        ",
"....                          ..........................                        ",
"........                ........................................                ",
"........                ........................................                ",
"........                ........................................                ",
"........                ........................................                ",
"............        ....................................    ....                ",
"............        ....................................    ....                ",
"............        ....................................    ....                ",
"............        ....................................    ....                ",
"........................................................                        ",
"........................................................                        ",
"........................................................                        ",
"........................................................                        ",
"........................................................                        ",
"........................................................                        ",
"........................................................                        ",
"........................................................                        ",
"    ....................................................                        ",
"    ....................................................                        ",
"    ................................................                            ",
"    ................................................                            ",
"        ............................................                            ",
"        ............................................                            ",
"        ............................................                            ",
"        ............................................                            ",
"            ....................................                                ",
"            ....................................                                ",
"            ....................................                                ",
"            ....................................                                ",
"                ............................                                    ",
"                ............................                                    ",
"                ............................                                    ",
"                ............................                                    ",
"                    ........        ........                                    ",
"                    ........        ........                                    ",
"                    ........        ........                                    ",
"                    ........        ........                                    ",
"                        ........        ....                                    ",
"                        ........        ....                                    ",
"                        ........        ....                                    ",
"                        ........        ....                                    ",
"                                        ....                                    ",
"                                        ....                                    ",
"                                        ....                                    ",
"                                        ....                                    ",
"                                        ........                                ",
"                                        ........                                ",
"                                        ........                                ",
"                                        ........                                "};
