/* XPM */
static const char * dino_baixo_esq_xpm[] = {
"110 52 2 1",
" 	c None",
".	c #000000",
"....                                                                                                          ",
"....                                                                                                          ",
"....                                                                      ................................    ",
"....                                                                      ................................    ",
"............                ..................................            ................................    ",
"............                ..................................            ................................    ",
"............                ..................................        ........................................",
"............                ..................................        ........................................",
"..............................................................................    ............................",
"..............................................................................    ............................",
"..............................................................................    ............................",
"..............................................................................    ............................",
"    ..........................................................................................................",
"    ..........................................................................................................",
"    ..........................................................................................................",
"    ..........................................................................................................",
"        ......................................................................................................",
"        ......................................................................................................",
"        ......................................................................................................",
"        ......................................................................................................",
"            ..................................................................................................",
"            ..................................................................................................",
"            ..................................................................................................",
"            ..................................................................................................",
"                ..........................................................................                    ",
"                ..........................................................................                    ",
"                ..........................................................................                    ",
"                ..........................................................................                    ",
"                    ..............................................        ............................        ",
"                    ..............................................        ............................        ",
"                    ..............................................        ............................        ",
"                    ..............................................        ............................        ",
"                        ..........................................                                            ",
"                        ..........................................                                            ",
"                        ........................          ....                                                ",
"                        ........................          ....                                                ",
"                      ............        ..........      ....                                                ",
"                      ............        ..........      ....                                                ",
"                      ............        ..........      ........                                            ",
"                      ............        ..........      ........                                            ",
"                      ........                            ........                                            ",
"                      ........                            ........                                            ",
"                      ........                                                                                ",
"                      ........                                                                                ",
"                      ....                                                                                    ",
"                      ....                                                                                    ",
"                      ....                                                                                    ",
"                      ....                                                                                    ",
"                      ........                                                                                ",
"                      ........                                                                                ",
"                      ........                                                                                ",
"                      ........                                                                                "};

