/* XPM */
static const char * meteor_xpm[] = {
"50 51 2 1",
" 	c None",
".	c #000000",
"                             .                    ",
"                           ...                    ",
"                        .....                     ",
"                      .....                       ",
"                     ...                          ",
"                    ...                           ",
"                    ..                            ",
"                   ...       ..     .             ",
"                   ..        ..   ...             ",
"                   ..        ..  ...   ..         ",
"                   ..        ..  ..    ..         ",
"                   ..       ...  ..    ..         ",
"                   ..      ...   ..    ..         ",
"                   ..     ...    ..    ..         ",
"                   ..     ..     ..    ..         ",
"                   ..    ...     ..    ..         ",
"                  ...   ...      ..   ...         ",
"                  ..  ....       ..   ..          ",
"                  .. ...         ..   ..        ..",
"                  .. ...         ..   ..        ..",
"                  .....          ..   ..    .. ...",
"                .....            ..   ..    .. .. ",
"              ......             ..  ...    .. .. ",
"            ..... ..             .. ...    ... .. ",
"           ...   ...             .....    ... ... ",
"          ...   ...             ....      ..  ..  ",
"          ..    ...           .....       ..  ..  ",
"          ..                ......       ..   ..  ",
"                          ....  ..       ..  ...  ",
"                       .....  ....      ...  ..   ",
"                     ............       ..  ...   ",
"      ........      ..........          ..  ..    ",
"    ............    ......             ..  ...    ",
"   ..............   ..                ... ...     ",
"  ................  ..                ..  ..      ",
" .................. ..                ..  ..      ",
" .....................               .......      ",
"....................      .....      .....        ",
"....................  .................           ",
"....................  .................           ",
"....................          .........           ",
"....................             ......           ",
"....................                              ",
"....................                              ",
"....................                              ",
" ..................                               ",
" ..................                               ",
"  ................                                ",
"   ..............                                 ",
"    ............                                  ",
"      ........                                    "};
